<?xml version="1.0" standalone="no"?>
<!DOCTYPE svg PUBLIC "-//W3C//DTD SVG 20010904//EN"
 "http://www.w3.org/TR/2001/REC-SVG-20010904/DTD/svg10.dtd">
<svg version="1.0" xmlns="http://www.w3.org/2000/svg"
 width="662.000000pt" height="264.000000pt" viewBox="0 0 662.000000 264.000000"
 preserveAspectRatio="xMidYMid meet">

<g transform="translate(0.000000,264.000000) scale(0.100000,-0.100000)"
fill="#000000" stroke="none">
<path d="M2655 1890 c-8 -13 15 -13 35 0 12 8 11 10 -7 10 -12 0 -25 -4 -28
-10z"/>
<path d="M4980 1890 c0 -5 5 -10 11 -10 5 0 7 5 4 10 -3 6 -8 10 -11 10 -2 0
-4 -4 -4 -10z"/>
<path d="M974 1865 c-18 -14 -18 -14 9 -15 17 0 27 5 27 15 0 19 -11 19 -36 0z"/>
<path d="M2344 1865 c-10 -8 -14 -15 -8 -15 5 0 19 7 30 15 10 8 14 15 8 15
-5 0 -19 -7 -30 -15z"/>
<path d="M2765 1870 c3 -5 10 -10 16 -10 5 0 9 5 9 10 0 6 -7 10 -16 10 -8 0
-12 -4 -9 -10z"/>
<path d="M4476 1859 c-19 -19 -19 -19 6 -19 21 0 38 16 38 36 0 11 -27 1 -44
-17z"/>
<path d="M1280 1850 c0 -11 -4 -20 -10 -20 -5 0 -10 -5 -10 -10 0 -6 7 -7 18
-1 9 5 29 14 45 22 37 17 34 29 -8 29 -28 0 -35 -4 -35 -20z"/>
<path d="M715 1840 c-3 -5 -21 -17 -40 -26 -19 -9 -35 -20 -35 -25 0 -12 3
-11 31 4 43 23 69 42 69 49 0 11 -18 10 -25 -2z"/>
<path d="M1440 1834 c0 -20 32 -25 87 -14 76 16 67 31 -17 28 -44 -2 -70 -7
-70 -14z"/>
<path d="M5300 1840 c0 -5 14 -10 31 -10 17 0 28 4 24 10 -3 6 -17 10 -31 10
-13 0 -24 -4 -24 -10z"/>
<path d="M5752 1823 c-24 -14 -41 -28 -38 -30 5 -6 96 44 96 52 0 10 -16 4
-58 -22z"/>
<path d="M5988 1813 c-4 -36 3 -41 25 -18 8 8 17 11 21 8 3 -3 11 -1 18 5 7 5
30 13 51 17 63 12 41 26 -37 23 l-74 -3 -4 -32z"/>
<path d="M575 1829 c-49 -4 -97 -6 -106 -3 -12 3 -15 -2 -11 -26 3 -21 8 -28
16 -21 6 5 31 12 56 15 65 10 130 27 136 37 3 5 4 8 2 8 -2 -1 -43 -5 -93 -10z"/>
<path d="M5010 1829 c0 -5 5 -7 10 -4 6 3 10 8 10 11 0 2 -4 4 -10 4 -5 0 -10
-5 -10 -11z"/>
<path d="M2310 1820 c-8 -5 -11 -12 -7 -16 4 -4 13 -2 19 4 15 15 7 24 -12 12z"/>
<path d="M2695 1820 c-3 -5 -1 -10 4 -10 6 0 11 5 11 10 0 6 -2 10 -4 10 -3 0
-8 -4 -11 -10z"/>
<path d="M3110 1820 c0 -5 11 -10 25 -10 14 0 25 5 25 10 0 6 -11 10 -25 10
-14 0 -25 -4 -25 -10z"/>
<path d="M4351 1804 c-34 -24 -33 -28 3 -24 24 2 66 29 66 41 0 16 -34 8 -69
-17z"/>
<path d="M4946 1821 c-4 -7 -5 -15 -2 -18 9 -9 19 4 14 18 -4 11 -6 11 -12 0z"/>
<path d="M5196 1815 c4 -8 10 -15 15 -15 4 0 6 7 3 15 -4 8 -10 15 -15 15 -4
0 -6 -7 -3 -15z"/>
<path d="M1623 1807 c-50 -12 -55 -22 -13 -23 17 -1 30 3 30 7 0 5 6 9 14 9 8
0 18 5 21 10 7 11 5 11 -52 -3z"/>
<path d="M2812 1812 c-7 -5 -10 -16 -6 -25 8 -21 13 -21 39 0 20 15 20 15 -3
10 -18 -4 -22 -2 -18 9 6 16 5 17 -12 6z"/>
<path d="M3035 1810 c-3 -5 0 -10 9 -10 8 0 22 -3 30 -6 12 -5 15 -2 10 10 -7
18 -39 22 -49 6z"/>
<path d="M5158 1813 c7 -3 16 -2 19 1 4 3 -2 6 -13 5 -11 0 -14 -3 -6 -6z"/>
<path d="M1683 1798 c-13 -6 -23 -15 -23 -20 0 -15 25 -8 43 12 19 22 13 24
-20 8z"/>
<path d="M3850 1800 c0 -5 6 -13 14 -17 7 -4 15 -15 18 -23 3 -9 7 -10 11 -4
3 6 -5 21 -18 32 -14 12 -25 18 -25 12z"/>
<path d="M5095 1801 c-10 -18 17 -23 33 -7 15 15 15 16 -5 16 -12 0 -24 -4
-28 -9z"/>
<path d="M720 1790 c-9 -6 -10 -10 -3 -10 6 0 15 5 18 10 8 12 4 12 -15 0z"/>
<path d="M2033 1793 c-14 -5 -18 -23 -5 -23 5 0 17 7 28 15 14 11 15 14 4 14
-8 0 -21 -3 -27 -6z"/>
<path d="M3588 1793 c7 -3 16 -2 19 1 4 3 -2 6 -13 5 -11 0 -14 -3 -6 -6z"/>
<path d="M3947 1794 c-8 -8 3 -34 14 -34 11 0 12 27 0 34 -4 3 -11 3 -14 0z"/>
<path d="M4010 1784 c0 -8 5 -12 10 -9 6 3 10 10 10 16 0 5 -4 9 -10 9 -5 0
-10 -7 -10 -16z"/>
<path d="M5785 1790 c-3 -5 -2 -10 4 -10 5 0 13 5 16 10 3 6 2 10 -4 10 -5 0
-13 -4 -16 -10z"/>
<path d="M543 1783 c-7 -2 -13 -10 -13 -16 0 -8 3 -8 11 0 7 7 26 10 43 7 24
-4 28 -3 16 5 -16 11 -37 13 -57 4z"/>
<path d="M4268 1776 c-24 -18 -22 -28 4 -24 13 2 24 11 26 21 4 20 -6 21 -30
3z"/>
<path d="M3700 1770 c0 -5 9 -10 20 -10 11 0 20 5 20 10 0 6 -9 10 -20 10 -11
0 -20 -4 -20 -10z"/>
<path d="M5648 1773 c7 -3 16 -2 19 1 4 3 -2 6 -13 5 -11 0 -14 -3 -6 -6z"/>
<path d="M5739 1759 l-24 -20 28 17 c15 9 27 18 27 20 0 8 -8 4 -31 -17z"/>
<path d="M6085 1770 c-3 -5 -1 -10 4 -10 6 0 11 5 11 10 0 6 -2 10 -4 10 -3 0
-8 -4 -11 -10z"/>
<path d="M5170 1750 c0 -5 4 -10 9 -10 6 0 13 5 16 10 3 6 -1 10 -9 10 -9 0
-16 -4 -16 -10z"/>
<path d="M5285 1750 c-3 -5 -1 -10 4 -10 6 0 11 5 11 10 0 6 -2 10 -4 10 -3 0
-8 -4 -11 -10z"/>
<path d="M1068 1603 c-15 -2 -39 -18 -53 -34 -21 -26 -25 -41 -25 -94 0 -54 4
-68 26 -94 41 -49 44 -79 16 -134 -25 -48 -25 -64 4 -134 3 -7 -5 -15 -19 -18
-24 -6 -39 -31 -67 -107 -14 -41 -25 -34 -39 22 -8 29 -32 76 -57 109 -50 67
-54 81 -19 81 27 0 72 43 81 77 3 11 4 75 2 142 -4 173 7 165 -251 168 -201 2
-250 -4 -261 -32 -3 -8 -23 -26 -45 -40 -56 -35 -81 -88 -88 -188 -11 -172 5
-258 62 -332 32 -43 32 -51 -5 -59 -17 -3 -42 -17 -55 -30 -24 -24 -25 -30
-25 -154 0 -136 10 -186 40 -202 23 -12 83 -13 96 -1 9 8 168 -1 247 -15 54
-9 100 2 142 36 l38 30 53 -30 c50 -28 61 -30 153 -30 92 0 102 2 130 25 l30
26 24 -25 c33 -33 89 -40 178 -22 92 20 119 20 155 1 38 -20 211 -21 257 -1
18 7 41 25 50 40 13 19 26 26 50 26 29 0 35 -5 51 -41 20 -45 53 -63 99 -53
16 3 73 7 126 8 53 1 103 6 111 11 8 5 67 8 131 6 113 -3 116 -2 148 24 l32
27 23 -25 c32 -34 86 -41 177 -23 88 19 142 20 172 4 14 -7 69 -11 156 -9 114
2 140 5 167 21 31 20 31 20 49 0 16 -18 31 -20 130 -20 62 0 127 5 145 11 27
10 37 9 64 -7 27 -16 49 -18 166 -16 111 2 139 6 160 21 38 27 55 69 55 138 0
51 -4 66 -23 86 -16 17 -22 34 -20 53 3 28 4 29 81 35 46 4 86 13 100 23 12 9
39 27 59 41 45 30 67 70 78 139 5 28 13 69 19 91 27 104 2 231 -63 322 -33 46
-45 55 -94 69 -30 9 -105 18 -166 21 -61 2 -129 5 -151 6 -89 3 -182 -4 -198
-15 -10 -7 -28 -40 -42 -73 l-24 -60 -11 30 c-28 73 -85 102 -239 121 -141 16
-336 18 -380 3 -56 -20 -94 -129 -67 -193 8 -20 22 -39 30 -42 9 -3 18 -25 21
-52 4 -26 11 -62 17 -80 7 -24 7 -46 -1 -75 -6 -23 -13 -109 -15 -192 -2 -82
-5 -151 -5 -151 -1 -1 -8 -5 -16 -8 -13 -5 -15 0 -9 29 4 24 -7 89 -40 222
-63 259 -74 292 -103 321 -21 21 -23 28 -14 49 28 62 -2 139 -68 174 -41 22
-144 34 -208 24 -31 -4 -55 -16 -75 -35 -25 -25 -28 -35 -28 -93 0 -55 4 -70
25 -95 14 -17 30 -44 36 -61 9 -26 8 -35 -10 -57 -24 -30 -29 -101 -10 -137 9
-16 9 -22 1 -25 -36 -12 -57 -46 -91 -150 -21 -62 -42 -114 -47 -115 -13 -3
-17 294 -5 423 5 58 14 124 21 147 13 46 7 120 -13 146 -29 40 -260 52 -302
17 -19 -15 -52 -90 -67 -147 -6 -24 -14 -43 -17 -43 -4 0 -15 25 -25 55 -10
34 -31 70 -54 94 -34 35 -43 39 -112 46 -142 16 -170 13 -193 -17 -38 -51 -35
-180 6 -218 11 -11 31 -48 43 -81 l22 -61 -21 -36 c-19 -33 -21 -51 -22 -200
0 -160 -1 -165 -23 -180 -29 -19 -34 -13 -20 25 10 26 7 50 -20 160 -18 70
-39 157 -48 193 -34 140 -46 173 -70 197 -23 23 -24 27 -13 64 16 51 -1 109
-41 142 -46 39 -158 56 -262 40z m1638 -97 c25 -28 29 -66 8 -73 -6 -2 -14 5
-17 17 -3 11 -10 20 -16 20 -19 0 -24 -30 -11 -56 12 -21 11 -26 -6 -40 -15
-12 -16 -16 -5 -21 18 -7 47 -37 54 -54 4 -11 8 -10 19 4 20 26 32 8 52 -73
40 -162 47 -191 71 -283 15 -54 24 -104 21 -110 -2 -7 -8 -2 -12 11 -4 14 -13
22 -23 20 -12 -3 -15 -14 -13 -46 1 -24 -2 -42 -8 -42 -22 0 -8 -30 20 -45 22
-11 30 -23 30 -43 l0 -27 19 24 c12 16 21 20 25 12 12 -18 29 -12 70 25 l38
36 5 167 c4 152 8 182 34 233 10 19 3 45 -19 70 -9 11 -16 43 -17 84 -2 64 -4
67 -34 80 -35 15 -38 27 -15 84 l16 40 67 2 c36 1 93 2 126 3 l60 0 2 -75 c1
-41 -2 -111 -8 -155 -6 -44 -10 -88 -10 -97 0 -10 -4 -18 -10 -18 -14 0 -11
-20 6 -36 19 -20 19 -38 0 -31 -8 4 -17 2 -20 -2 -2 -5 4 -11 15 -14 18 -5 20
-14 20 -85 0 -62 -4 -84 -17 -97 -12 -12 -13 -19 -4 -24 10 -7 15 -32 20 -109
0 -12 10 -30 21 -39 12 -11 20 -30 20 -50 0 -32 -18 -83 -29 -83 -3 -1 -61 -2
-129 -4 -114 -4 -125 -2 -143 17 -15 16 -22 18 -31 9 -17 -17 -38 -15 -38 3 0
20 -16 19 -24 -1 -4 -10 -13 -13 -26 -9 -12 4 -27 1 -35 -5 -8 -6 -47 -14 -88
-17 -83 -6 -88 -3 -100 63 -5 26 -1 36 23 57 l29 26 -16 53 c-9 29 -51 177
-94 328 -65 232 -81 277 -102 292 -20 15 -24 25 -22 54 6 61 16 66 128 62 94
-3 100 -4 123 -32z m678 0 c144 -11 188 -67 194 -252 5 -161 -20 -231 -102
-284 l-39 -25 31 -3 c19 -2 33 -10 36 -20 42 -144 48 -160 77 -181 24 -18 29
-29 29 -64 0 -23 -4 -47 -8 -53 -4 -7 -50 -13 -117 -15 l-109 -4 -48 175 c-27
96 -50 201 -51 232 l-3 57 37 14 c56 22 69 50 73 158 3 51 0 101 -5 111 -13
24 -64 49 -83 42 -13 -5 -16 3 -16 53 0 62 4 74 23 68 7 -2 43 -6 81 -9z m507
4 c10 -6 19 -17 19 -25 0 -18 -12 -19 -27 -4 -8 8 -17 8 -32 -1 -24 -12 -41
-6 -41 15 0 7 12 16 28 18 15 2 28 5 30 6 2 0 12 -4 23 -9z m-114 -21 c-7 -25
53 -55 68 -35 7 8 21 12 37 9 19 -4 30 1 42 19 13 18 18 20 25 9 5 -7 7 -175
4 -372 l-5 -358 28 -26 c23 -21 26 -30 21 -66 -9 -70 -18 -74 -164 -74 -126 0
-128 0 -139 25 -6 14 -14 39 -17 57 -6 28 -2 34 28 52 l35 20 0 310 0 310 -27
13 c-34 16 -40 46 -18 92 14 30 21 34 51 33 28 -1 34 -4 31 -18z m364 -1 c61
-10 72 -15 85 -40 8 -15 19 -28 24 -28 16 0 50 -110 50 -164 0 -84 -9 -118
-30 -111 -26 8 -34 -11 -16 -37 22 -31 20 -64 -6 -98 -27 -37 -38 -38 -38 -2
0 36 -14 56 -34 49 -20 -8 -21 -31 -1 -47 22 -18 18 -47 -7 -64 -13 -7 -51
-16 -85 -19 -70 -6 -81 1 -89 55 -8 49 10 85 51 102 46 19 56 49 56 160 0 78
-2 91 -22 112 -13 14 -34 24 -51 24 -26 0 -28 2 -28 44 0 83 8 86 141 64z
m-2031 -88 c0 -5 -2 -10 -4 -10 -3 0 -8 5 -11 10 -3 6 -1 10 4 10 6 0 11 -4
11 -10z m-1464 -59 c42 -19 109 -94 68 -76 -10 4 -49 19 -86 33 -51 18 -68 29
-68 43 0 25 32 24 86 0z m3022 -13 c9 -9 12 -84 12 -275 0 -218 -2 -265 -14
-269 -20 -8 -63 23 -70 49 -3 12 -12 43 -20 68 -14 45 -13 48 11 84 37 55 55
136 57 252 0 57 3 103 7 103 3 0 10 -5 17 -12z m-1593 -58 c10 -11 16 -22 14
-24 -2 -3 -14 6 -26 20 -12 13 -18 24 -14 24 4 0 16 -9 26 -20z m-308 -22 c-3
-8 -6 -5 -6 6 -1 11 2 17 5 13 3 -3 4 -12 1 -19z m33 -18 c0 -5 -4 -10 -10
-10 -5 0 -10 5 -10 10 0 6 5 10 10 10 6 0 10 -4 10 -10z m1511 -26 c-9 -28 -9
-29 -10 -3 -1 14 2 29 6 32 11 12 13 2 4 -29z m-2041 -7 c0 -5 -4 -5 -10 -2
-5 3 -10 14 -10 23 0 15 2 15 10 2 5 -8 10 -19 10 -23z m797 27 c-3 -3 -12 -4
-19 -1 -8 3 -5 6 6 6 11 1 17 -2 13 -5z m462 -12 c5 -9 17 -46 26 -80 15 -61
15 -66 -4 -117 -20 -53 -20 -54 -1 -60 11 -3 24 -4 28 -1 19 11 50 -25 56 -65
8 -53 -5 -69 -58 -69 -52 0 -74 -15 -82 -57 -5 -25 -3 -33 8 -33 28 0 50 -36
43 -68 -11 -50 -31 -60 -122 -58 -45 1 -85 5 -89 8 -3 4 6 18 22 31 24 21 26
27 15 41 -7 9 -11 22 -8 30 3 8 1 16 -5 18 -7 3 7 60 37 155 l48 150 28 -16
c35 -20 45 -10 52 52 4 41 1 53 -19 77 -27 31 -30 50 -12 68 16 16 26 15 37
-6z m-744 -21 c3 -5 1 -12 -5 -16 -5 -3 -10 1 -10 9 0 18 6 21 15 7z m-494
-58 c-12 -20 -14 -14 -5 12 4 9 9 14 11 11 3 -2 0 -13 -6 -23z m519 -3 c0 -5
-4 -10 -10 -10 -5 0 -10 5 -10 10 0 6 5 10 10 10 6 0 10 -4 10 -10z m0 -50 c0
-5 -5 -10 -11 -10 -5 0 -7 5 -4 10 3 6 8 10 11 10 2 0 4 -4 4 -10z m-63 -62
c-3 -8 -6 -5 -6 6 -1 11 2 17 5 13 3 -3 4 -12 1 -19z m843 -13 c0 -8 -4 -15
-10 -15 -5 0 -10 7 -10 15 0 8 5 15 10 15 6 0 10 -7 10 -15z m-1833 -27 c-3
-7 -5 -2 -5 12 0 14 2 19 5 13 2 -7 2 -19 0 -25z m563 12 c0 -5 -4 -10 -10
-10 -5 0 -10 5 -10 10 0 6 5 10 10 10 6 0 10 -4 10 -10z m24 -25 c3 -8 1 -15
-4 -15 -6 0 -10 7 -10 15 0 8 2 15 4 15 2 0 6 -7 10 -15z m373 -17 c-3 -7 -5
-2 -5 12 0 14 2 19 5 13 2 -7 2 -19 0 -25z m-927 2 c0 -5 -2 -10 -4 -10 -3 0
-8 5 -11 10 -3 6 -1 10 4 10 6 0 11 -4 11 -10z m2486 -47 c3 -16 12 -50 20
-77 18 -64 18 -66 -5 -66 -27 0 -28 3 -36 93 -5 54 -4 77 4 77 6 0 13 -12 17
-27z m-2702 -52 c63 -22 78 -43 50 -72 -16 -15 -28 -19 -44 -14 -26 8 -97 70
-111 98 -10 17 -8 18 23 12 18 -4 55 -15 82 -24z m1210 -63 c7 -30 -2 -36 -22
-16 -13 13 -16 51 -5 62 8 8 18 -9 27 -46z m373 -20 c-3 -8 -6 -5 -6 6 -1 11
2 17 5 13 3 -3 4 -12 1 -19z m148 -84 c8 -20 12 -40 9 -45 -16 -27 -53 10 -54
54 0 40 27 34 45 -9z m35 15 c0 -5 -4 -9 -10 -9 -5 0 -10 7 -10 16 0 8 5 12
10 9 6 -3 10 -10 10 -16z m-1410 1 c0 -5 -2 -10 -4 -10 -3 0 -8 5 -11 10 -3 6
-1 10 4 10 6 0 11 -4 11 -10z"/>
<path d="M2690 1210 c0 -5 5 -10 10 -10 6 0 10 5 10 10 0 6 -4 10 -10 10 -5 0
-10 -4 -10 -10z"/>
<path d="M2720 1142 c0 -15 5 -19 20 -15 24 6 21 26 -3 31 -11 2 -17 -3 -17
-16z"/>
<path d="M3070 1076 c0 -9 5 -16 10 -16 6 0 10 4 10 9 0 6 -4 13 -10 16 -5 3
-10 -1 -10 -9z"/>
<path d="M2710 960 c0 -5 5 -10 10 -10 6 0 10 5 10 10 0 6 -4 10 -10 10 -5 0
-10 -4 -10 -10z"/>
<path d="M3045 880 c3 -5 8 -10 11 -10 2 0 4 5 4 10 0 6 -5 10 -11 10 -5 0 -7
-4 -4 -10z"/>
<path d="M2466 915 c-6 -16 22 -85 35 -85 19 0 18 22 -1 60 -23 45 -25 47 -34
25z"/>
<path d="M2460 663 c0 -5 5 -15 10 -23 7 -11 12 -12 21 -3 6 6 8 16 5 22 -8
12 -36 15 -36 4z"/>
<path d="M4500 1600 c-57 -14 -80 -50 -80 -125 0 -53 4 -68 25 -93 14 -17 30
-45 36 -62 10 -27 9 -34 -12 -56 -17 -19 -23 -36 -23 -73 0 -27 6 -57 14 -66
12 -14 12 -18 -1 -26 -8 -5 -19 -9 -26 -9 -12 0 -22 -24 -81 -194 -34 -101
-39 -110 -67 -118 -40 -10 -55 -33 -55 -84 0 -64 14 -90 67 -124 45 -28 54
-30 150 -30 95 0 103 2 133 26 l31 26 23 -25 c32 -34 86 -41 177 -23 92 20
117 20 162 1 25 -10 71 -15 145 -15 149 0 170 5 195 48 l21 35 15 -31 c9 -21
26 -35 49 -43 49 -16 171 -7 206 16 26 17 29 17 56 2 21 -13 53 -17 131 -17
98 0 104 1 131 27 l28 27 16 -22 c23 -33 81 -45 156 -31 35 6 92 14 128 18 77
8 105 22 125 61 35 68 7 140 -54 140 -38 0 -42 7 -29 55 10 36 6 59 -30 190
-22 83 -46 177 -52 210 -16 78 -43 141 -68 154 -19 10 -20 13 -5 42 30 61 -6
146 -75 175 -53 22 -178 29 -226 12 -58 -20 -81 -56 -80 -129 1 -50 5 -64 27
-87 15 -15 31 -42 38 -59 9 -27 7 -36 -11 -61 -18 -24 -21 -40 -18 -78 3 -27
8 -56 12 -65 5 -13 0 -19 -23 -27 -27 -10 -33 -21 -78 -159 -26 -81 -52 -147
-57 -146 -5 1 -18 29 -28 62 -18 58 -18 62 -1 93 25 47 25 238 0 286 -24 45
-14 96 25 124 51 36 74 123 47 182 -16 34 -29 38 -149 43 -123 6 -175 -8 -186
-51 -8 -33 -12 -33 -45 7 -27 32 -27 32 -115 31 -117 0 -229 -34 -250 -76 -26
-50 -15 -114 27 -148 15 -13 17 -21 9 -55 -5 -22 -10 -147 -10 -277 0 -212 -2
-238 -16 -238 -11 0 -14 5 -9 18 4 9 10 25 12 34 5 18 -59 307 -98 442 -12 38
-31 79 -45 93 -22 22 -23 27 -13 68 14 57 -2 107 -45 140 -51 39 -169 55 -256
35z m770 -250 c0 -5 -2 -10 -4 -10 -3 0 -8 5 -11 10 -3 6 -1 10 4 10 6 0 11
-4 11 -10z m-660 -345 c0 -8 -4 -15 -10 -15 -5 0 -10 7 -10 15 0 8 5 15 10 15
6 0 10 -7 10 -15z m1340 1 c0 -8 -4 -18 -10 -21 -5 -3 -10 3 -10 14 0 12 5 21
10 21 6 0 10 -6 10 -14z m-1590 -307 c0 -5 -4 -9 -10 -9 -5 0 -10 7 -10 16 0
8 5 12 10 9 6 -3 10 -10 10 -16z m1327 -1 c-3 -8 -6 -5 -6 6 -1 11 2 17 5 13
3 -3 4 -12 1 -19z"/>
<path d="M0 470 c0 -11 5 -20 10 -20 6 0 10 9 10 20 0 11 -4 20 -10 20 -5 0
-10 -9 -10 -20z"/>
<path d="M6607 475 c-4 -8 -2 -17 3 -20 6 -4 10 3 10 14 0 25 -6 27 -13 6z"/>
</g>
</svg>
